<?xml version="1.0" encoding="utf-8"?>
<!-- Generator: Adobe Illustrator 22.0.1, SVG Export Plug-In . SVG Version: 6.00 Build 0)  -->
<svg version="1.1" id="Слой_1" xmlns="http://www.w3.org/2000/svg" xmlns:xlink="http://www.w3.org/1999/xlink" x="0px" y="0px"
	 viewBox="0 0 22 22" style="enable-background:new 0 0 22 22;" xml:space="preserve">
<style type="text/css">
	.st0{fill:#A7A7AA;}
	.st1{fill:#F3F3F3;}
	.st2{fill:#F90E0E;}
</style>
<path class="st0" d="M14.4,17.7H7.8c-0.4,0-0.7,0.5-0.7,1c0,0.6,0.3,1,0.7,1h6.6c0.4,0,0.7-0.5,0.7-1C15.2,18.2,14.8,17.7,14.4,17.7
	L14.4,17.7z"/>
<path class="st0" d="M18.2,16.3l-1.6-1.3c1.7-2.1,2-5,0.9-7.5C17,6.4,16,5.4,14.9,4.7c-1.1-0.7-2.5-1.1-3.8-1.1
	c-1.3,0-2.6,0.4-3.8,1.1c-1.1,0.7-2,1.7-2.6,2.9C3.6,10,3.9,13,5.6,15.1L4,16.3c-2.2-2.7-2.6-6.5-1.1-9.6C3.7,5.2,4.8,3.9,6.3,3
	c1.5-0.9,3.1-1.4,4.8-1.4c1.7,0,3.4,0.5,4.9,1.4c1.4,0.9,2.6,2.2,3.3,3.8C20.8,9.9,20.4,13.6,18.2,16.3z M11.8,11.3l-1.4-1.4l4-4
	l1.4,1.4L11.8,11.3z"/>
<path class="st1" d="M0,3.4L3.4,0L22,18.6L18.6,22L0,3.4z"/>
<path class="st2" d="M1,2.4L2.4,1L21,19.6L19.6,21L1,2.4z"/>
</svg>
