<svg xmlns="http://www.w3.org/2000/svg" width="16" height="20" fill="none" viewBox="0 0 16 20">
    <path fill="#A7A7AA" d="M15.98 5.148c-.023-.526-.023-1.028-.023-1.53 0-.407-.295-.718-.682-.718-2.841 0-5.001-.861-6.797-2.703a.676.676 0 0 0-.955 0C5.727 2.04 3.567 2.9.726 2.9c-.387 0-.682.31-.682.717 0 .503 0 1.005-.023 1.531-.091 5.022-.228 11.91 7.752 14.804L8 20l.228-.048c7.957-2.894 7.843-9.758 7.752-14.804zm-8.525 6.96a.713.713 0 0 1-.478.191h-.022a.628.628 0 0 1-.478-.24L4.363 9.597l1.023-.956 1.66 1.937 3.682-3.683.933 1.052-4.206 4.162z"/>
</svg>
