<svg xmlns="http://www.w3.org/2000/svg" width="18" height="18" fill="none" viewBox="0 0 18 18">
    <path fill="#2471BE" d="M16 2.002V16H2.002V2.002H16zM15.998 0H2.003A2.002 2.002 0 0 0 0 2.002v13.996A2.003 2.003 0 0 0 2.002 18h13.996A2.003 2.003 0 0 0 18 15.998V2.003A2.003 2.003 0 0 0 15.998 0z"/>
    <path fill="#2471BE" d="M12.978 4.11a3.854 3.854 0 0 0-1.46-.91 3.673 3.673 0 0 0-1.686-.167H5V15h2.023v-4.428h2.809a4.184 4.184 0 0 0 3.146-.957c.35-.35.623-.778.798-1.254a3.64 3.64 0 0 0 .213-1.498 3.562 3.562 0 0 0-.206-1.501 3.378 3.378 0 0 0-.805-1.252zm-1.685 4.308a2.019 2.019 0 0 1-.727.48c-.27.103-.56.143-.847.119H7.023V4.709h2.584c.315-.034.632.014.925.14.294.124.554.322.76.578.346.39.545.9.562 1.436a2.359 2.359 0 0 1-.561 1.555z"/>
</svg>
