<?xml version="1.0" encoding="utf-8"?>
<!-- Generator: Adobe Illustrator 22.0.1, SVG Export Plug-In . SVG Version: 6.00 Build 0)  -->
<svg version="1.1" id="Слой_1" xmlns="http://www.w3.org/2000/svg" xmlns:xlink="http://www.w3.org/1999/xlink" x="0px" y="0px"
	 viewBox="0 0 18 18" style="enable-background:new 0 0 18 18;" xml:space="preserve">
<style type="text/css">
	.st0{fill:#A7A7AA;}
</style>
<path class="st0" d="M12.3,16H5.7C5.3,16,5,16.5,5,17s0.3,1,0.7,1h6.5c0.4,0,0.7-0.5,0.7-1S12.7,16,12.3,16z"/>
<path class="st0" d="M16,14.6l-1.6-1.3c1.7-2.1,2-5,0.9-7.4c-0.6-1.2-1.5-2.2-2.6-2.9C11.6,2.4,10.3,2,9,2C7.7,2,6.4,2.4,5.3,3.1
	C4.1,3.8,3.3,4.8,2.7,6c-1.2,2.4-0.8,5.3,0.9,7.4L2,14.6C-0.2,12-0.6,8.2,0.9,5.1c0.7-1.5,1.9-2.8,3.3-3.7C5.6,0.5,7.3,0,9,0
	c1.7,0,3.4,0.5,4.8,1.4c1.4,0.9,2.6,2.2,3.3,3.7C18.6,8.2,18.2,12,16,14.6z M9.7,9.7L8.3,8.3l4-4l1.4,1.4L9.7,9.7z"/>
</svg>
