<?xml version="1.0" encoding="utf-8"?>
<!-- Generator: Adobe Illustrator 22.0.1, SVG Export Plug-In . SVG Version: 6.00 Build 0)  -->
<svg version="1.1" id="Слой_1" xmlns="http://www.w3.org/2000/svg" xmlns:xlink="http://www.w3.org/1999/xlink" x="0px" y="0px"
	 viewBox="0 0 20 20" style="enable-background:new 0 0 20 20;" xml:space="preserve">
<style type="text/css">
	.st0{fill:#2471BE;}
</style>
<path class="st0" d="M16,15.5c-0.2,0-0.4-0.1-0.6-0.2c-0.5-0.3-0.6-0.9-0.3-1.4l2.6-3.9l-2.6-3.9C14.9,5.6,15,5,15.4,4.7
	c0.5-0.3,1.1-0.2,1.4,0.3l3,4.5c0.2,0.3,0.2,0.8,0,1.1l-3,4.5C16.6,15.3,16.3,15.5,16,15.5z M4,15.5c-0.3,0-0.6-0.2-0.8-0.4l-3-4.5
	c-0.2-0.3-0.2-0.8,0-1.1l3-4.5c0.3-0.5,0.9-0.6,1.4-0.3C5,5,5.1,5.6,4.8,6.1L2.2,10l2.6,3.9C5.1,14.4,5,15,4.6,15.3
	C4.4,15.4,4.2,15.5,4,15.5z"/>
<path class="st0" d="M7,20c-0.1,0-0.2,0-0.3-0.1c-0.5-0.2-0.8-0.7-0.6-1.3l6-18c0.2-0.5,0.7-0.8,1.3-0.6c0.5,0.2,0.8,0.7,0.6,1.3
	l-6,18C7.8,19.7,7.4,20,7,20z"/>
</svg>
