<svg xmlns="http://www.w3.org/2000/svg" width="24" height="24" fill="none" viewBox="0 0 24 24">
    <path fill="#A7A7AA" d="M.699 20.105c-.932.933-.932 2.264 0 3.196.4.4 1.065.666 1.598.666.532 0 1.198-.267 1.598-.666l7.323-7.323-3.196-3.196L.7 20.105zM19.073 6.524l3.196-1.73L24 1.597 22.402 0l-3.195 1.73-1.731 3.197-3.862 3.86 1.598 1.599 3.861-3.862z"/>
    <path fill="#A7A7AA" d="M19.872 15.046h-.266c-.532 0-1.065.133-1.598.266l-9.32-9.32c.133-.533.266-1.066.266-1.598v-.266A4.386 4.386 0 0 0 4.56 0C3.895 0 3.23.133 2.696.4l2.93 2.929c.133.266.266.4.266.665.133.533.133 1.199-.4 1.598-.133.267-.532.4-.932.4-.133 0-.4 0-.532-.133-.133 0-.4-.134-.533-.267L.565 2.53C.167 3.196.034 3.86.034 4.527a4.386 4.386 0 0 0 4.128 4.394h.266c.533 0 1.065-.133 1.598-.266l9.187 9.187c-.133.533-.266 1.065-.266 1.598v.266c.133 2.397 2.13 4.128 4.394 4.128.666 0 1.331-.133 1.864-.4l-2.93-2.93c-.133-.132-.266-.399-.399-.532-.133-.532-.133-1.198.4-1.598.266-.266.665-.399 1.065-.399.133 0 .4 0 .532.133.134.133.4.133.533.4l2.93 2.929c.266-.533.399-1.198.399-1.864.266-2.53-1.598-4.394-3.862-4.527z"/>
</svg>
