<?xml version="1.0" encoding="utf-8"?>
<!-- Generator: Adobe Illustrator 22.0.1, SVG Export Plug-In . SVG Version: 6.00 Build 0)  -->
<svg version="1.1" id="Слой_1" xmlns="http://www.w3.org/2000/svg" xmlns:xlink="http://www.w3.org/1999/xlink" x="0px" y="0px"
	 viewBox="0 0 17 17" style="enable-background:new 0 0 17 17;" xml:space="preserve">
<style type="text/css">
	.st0{fill:#A7A7AA;}
</style>
<path class="st0" d="M8.7,17c-2.1,0-4.2-0.8-5.9-2.4c-0.6-0.7-0.6-1.7,0-2.4l9.4-9.5c0.4-0.3,0.8-0.5,1.2-0.5c0.4,0,0.8,0.2,1.1,0.5
	c3.2,3.2,3.2,8.5,0,11.8C12.9,16.2,10.8,17,8.7,17z M4.5,13.4c2.5,2.2,6.3,2.1,8.7-0.2c2.3-2.4,2.4-6.2,0.2-8.7L4.5,13.4z"/>
<path class="st0" d="M0.1,6.9c0-0.1-0.4-2.8,1.3-4.8C2.5,0.7,4.4,0,6.8,0v2C5,2,3.7,2.5,2.9,3.4C1.8,4.7,2,6.6,2,6.6L0.1,6.9z
	 M5.5,6.8h-2c0-1.8,1.5-3.3,3.3-3.3v2C6.1,5.5,5.5,6.1,5.5,6.8z"/>
</svg>
