<svg xmlns="http://www.w3.org/2000/svg" width="20" height="17" fill="none" viewBox="0 0 20 17">
    <path fill="#A7A7AA" fill-rule="evenodd" d="M17.045 3c.74 0 1.944 0 2.455.5.501.492.5.972.5 1.652V14.384c0 .722-.26 1.339-.781 1.85-.521.51-1.15.766-1.886.766H2.667a2.595 2.595 0 0 1-1.886-.767 2.495 2.495 0 0 1-.78-1.849V5.231v-.08C-.002 4.47-.002 3.99.5 3.5 1.01 3 2.214 3 2.954 3H5l.531-1.774c.132-.334.373-.621.724-.863S6.965 0 7.333 0h5.334c.368 0 .727.121 1.078.363.35.242.592.53.724.863L15 3h2.046zM6.467 6.467C7.445 5.49 8.623 5 10 5c1.377 0 2.555.489 3.533 1.467C14.51 7.445 15 8.623 15 10c0 1.377-.49 2.555-1.467 3.533C12.555 14.511 11.377 15 10 15c-1.377 0-2.555-.49-3.533-1.467C5.49 12.555 5 11.377 5 10c0-1.377.49-2.555 1.467-3.533z" clip-rule="evenodd"/>
    <circle cx="10" cy="10" r="3" fill="#A7A7AA"/>
</svg>
