<svg xmlns="http://www.w3.org/2000/svg" width="20" height="20" fill="none" viewBox="0 0 20 20">
    <path fill="#A7A7AA" fill-rule="evenodd" d="M2.225 0h15.55c.59 0 1.156.233 1.573.65.418.415.652.978.652 1.566v15.487c0 .588-.234 1.152-.652 1.567a2.23 2.23 0 0 1-1.573.65H2.225a2.23 2.23 0 0 1-1.573-.65A2.211 2.211 0 0 1 0 17.703V2.216C0 1.628.234 1.065.652.649A2.23 2.23 0 0 1 2.225 0zm9.568 4.15c.484.186.927.497 1.299.91.314.346.56.774.715 1.25.156.476.219.989.184 1.499.03.51-.035 1.02-.19 1.496a3.528 3.528 0 0 1-.71 1.252c-.793.74-1.891 1.098-2.796 1.098H8v4.28H6V3.985h4.468c.548-.002.886-.004 1.325.165zm-.845 5.69c.24-.102.461-.265.645-.478.325-.423.504-.978.5-1.553a2.437 2.437 0 0 0-.5-1.434c-.183-.255-.384-.384-.645-.51-.26-.124-.668-.235-.948-.202H8V9.96h2.195c.255.024.512-.016.753-.12z" clip-rule="evenodd"/>
</svg>
