<svg xmlns="http://www.w3.org/2000/svg" width="20" height="22" fill="none" viewBox="0 0 20 22">
    <path fill="#A7A7AA" d="M19.115 5.17l.012-.012L14.618.61l-1.285 1.296 2.558 2.579a3.045 3.045 0 0 0-1.952 2.847c0 1.687 1.358 3.056 3.03 3.056.437 0 .837-.098 1.213-.257v8.812a1.22 1.22 0 0 1-1.212 1.223 1.22 1.22 0 0 1-1.212-1.223v-5.5c0-1.344-1.091-2.444-2.425-2.444h-1.212V2.444C12.121 1.1 11.031 0 9.697 0H2.424C1.091 0 0 1.1 0 2.444V22h12.121v-9.167h1.818v6.111c0 1.687 1.358 3.056 3.03 3.056C18.643 22 20 20.631 20 18.944V7.334c0-.844-.34-1.614-.885-2.164zM9.697 8.556H2.424V2.444h7.273v6.112zm7.273 0a1.22 1.22 0 0 1-1.212-1.223 1.22 1.22 0 0 1 1.212-1.222c.666 0 1.212.55 1.212 1.222a1.22 1.22 0 0 1-1.212 1.223z"/>
</svg>
