<svg xmlns="http://www.w3.org/2000/svg" width="18" height="18" fill="none" viewBox="0 0 18 18">
    <path fill="#A7A7AA" d="M6.702 0a6.685 6.685 0 0 0-5.499 2.864 6.696 6.696 0 0 0 3.812 10.31 6.685 6.685 0 0 0 6.037-1.406l.281.292v.81L16.471 18 18 16.47l-5.127-5.152h-.809l-.292-.282a6.686 6.686 0 0 0-1.465-9.98A6.674 6.674 0 0 0 6.702 0zm0 11.318a4.63 4.63 0 0 1-4.28-2.862 4.638 4.638 0 0 1 3.376-6.32 4.629 4.629 0 0 1 4.755 1.971c.509.763.78 1.659.78 2.576a4.627 4.627 0 0 1-2.857 4.285 4.618 4.618 0 0 1-1.774.35z"/>
</svg>
