<?xml version="1.0" encoding="utf-8"?>
<!-- Generator: Adobe Illustrator 22.0.1, SVG Export Plug-In . SVG Version: 6.00 Build 0)  -->
<svg version="1.1" id="Слой_1" xmlns="http://www.w3.org/2000/svg" xmlns:xlink="http://www.w3.org/1999/xlink" x="0px" y="0px"
	 viewBox="0 0 22 22" style="enable-background:new 0 0 22 22;" xml:space="preserve">
<style type="text/css">
	.st0{fill:#A7A7AA;}
</style>
<g>
	<path class="st0" d="M18.1,4.3c-0.3-0.3-0.9-0.4-1.2,0c0,0,0,0,0,0L4.3,16.9c-0.3,0.3-0.3,0.9,0,1.2c3.9,3.8,10,3.8,13.9,0
		C22,14.3,21.9,8.2,18.1,4.3z"/>
	<path class="st0" d="M11.3,22c-2.7,0-5.5-1-7.6-3.1c-0.7-0.8-0.7-1.9,0-2.7L16.2,3.6c0.8-0.8,2-0.7,2.7,0c4.1,4.2,4.2,11,0,15.2
		C16.8,21,14,22,11.3,22z M5.1,17.6c3.5,3.3,8.9,3.3,12.4-0.1c3.3-3.4,3.3-8.9,0-12.3L5.1,17.6z"/>
</g>
<path class="st0" d="M0.1,8.9c0-0.1-0.6-3.6,1.6-6.2C3.2,0.9,5.6,0,8.8,0v2C6.2,2,4.4,2.7,3.2,4C1.6,5.9,2,8.5,2,8.5L0.1,8.9z
	 M6.6,8.7h-2c0-2.2,1.8-4.1,4.1-4.1v2C7.5,6.6,6.6,7.6,6.6,8.7z"/>
</svg>
