<svg width="18" height="18" viewBox="0 0 18 18" fill="none" xmlns="http://www.w3.org/2000/svg">
<path d="M15.8852 9.8775C15.9199 9.59625 15.943 9.30375 15.943 9C15.943 8.69625 15.9199 8.40375 15.8736 8.1225L17.8292 6.6375C18.0028 6.5025 18.0491 6.255 17.9449 6.06375L16.0935 2.9475C15.9777 2.745 15.7347 2.6775 15.5264 2.745L13.2237 3.645C12.7377 3.285 12.2285 2.9925 11.6615 2.7675L11.3143 0.3825C11.2796 0.1575 11.0829 0 10.8515 0H7.14853C6.91709 0 6.73195 0.1575 6.69723 0.3825L6.35008 2.7675C5.78307 2.9925 5.26234 3.29625 4.7879 3.645L2.48513 2.745C2.27684 2.66625 2.03384 2.745 1.91812 2.9475L0.0666476 6.06375C-0.0490694 6.26625 -0.00278243 6.5025 0.182365 6.6375L2.13798 8.1225C2.0917 8.40375 2.05698 8.7075 2.05698 9C2.05698 9.2925 2.08012 9.59625 2.12641 9.8775L0.170793 11.3625C-0.0027827 11.4975 -0.0490694 11.745 0.0550759 11.9362L1.90655 15.0525C2.02226 15.255 2.26527 15.3225 2.47356 15.255L4.77633 14.355C5.26234 14.715 5.7715 15.0075 6.33851 15.2325L6.68566 17.6175C6.73195 17.8425 6.91709 18 7.14853 18H10.8515C11.0829 18 11.2796 17.8425 11.3028 17.6175L11.6499 15.2325C12.2169 15.0075 12.7377 14.7038 13.2121 14.355L15.5149 15.255C15.7232 15.3338 15.9662 15.255 16.0819 15.0525L17.9334 11.9362C18.0491 11.7337 18.0028 11.4975 17.8176 11.3625L15.8852 9.8775ZM9 12.375C7.09067 12.375 5.52849 10.8562 5.52849 9C5.52849 7.14375 7.09067 5.625 9 5.625C10.9093 5.625 12.4715 7.14375 12.4715 9C12.4715 10.8562 10.9093 12.375 9 12.375Z" fill="#A7A7AA"/>
</svg>
