
<svg version="1.1" inkscape:version="0.92.2 (5c3e80d, 2017-08-06)" sodipodi:docname="GoogleMaps logo.svg" xmlns:cc="http://creativecommons.org/ns#" xmlns:dc="http://purl.org/dc/elements/1.1/" xmlns:inkscape="http://www.inkscape.org/namespaces/inkscape" xmlns:rdf="http://www.w3.org/1999/02/22-rdf-syntax-ns#" xmlns:sodipodi="http://sodipodi.sourceforge.net/DTD/sodipodi-0.dtd" xmlns:svg="http://www.w3.org/2000/svg"
	 xmlns="http://www.w3.org/2000/svg" xmlns:xlink="http://www.w3.org/1999/xlink" x="0px" y="0px" viewBox="0 0 187.8 190.6"
	 style="enable-background:new 0 0 187.8 190.6;" xml:space="preserve" width="24" height="24">
<style type="text/css">
	.st0{fill:#34A668;}
	.st1{fill:#5C88C5;}
	.st2{fill:#DD4B3E;}
	.st3{fill:#802D27;}
	.st4{fill:#FFFFFF;}
	.st5{fill:#C3C3C3;}
	.st6{fill:#FDDC4F;}
</style>
<title>GoogleMaps  logo</title>
<sodipodi:namedview  bordercolor="#666666" borderopacity="1.0" fit-margin-bottom="0" fit-margin-left="0" fit-margin-right="0.1" fit-margin-top="0.1" id="base" inkscape:current-layer="layer1" inkscape:cx="158.15263" inkscape:cy="100.08391" inkscape:document-units="px" inkscape:guide-bbox="true" inkscape:lockguides="true" inkscape:object-nodes="true" inkscape:pageopacity="0.0" inkscape:pageshadow="2" inkscape:snap-intersection-paths="false" inkscape:snap-object-midpoints="false" inkscape:window-height="1017" inkscape:window-maximized="1" inkscape:window-width="1920" inkscape:window-x="1358" inkscape:window-y="-8" inkscape:zoom="1" pagecolor="#ffffff" showgrid="false" showguides="true">
	</sodipodi:namedview>
<g transform="translate(-176.03052,-224.24971)" inkscape:groupmode="layer" inkscape:label="Capa 1">
	<g transform="matrix(0.98012243,0,0,0.98012243,3.4990592,5.794271)">
		<path class="st0" d="M190.9,247h140.7c8.2,0,14.8,6.6,14.8,14.8v140.7c0,8.2-6.6,14.8-14.8,14.8H190.9
			c-8.2,0-14.8-6.6-14.8-14.8V261.9C176,253.7,182.7,247,190.9,247z"/>
		<path inkscape:connector-curvature="0" class="st1" d="M262.3,330.6l-82.2,82.2c2.7,2.8,6.5,4.6,10.7,4.6h140.7
			c4.8,0,9-2.3,11.8-5.8L262.3,330.6z"/>
		<path inkscape:connector-curvature="0" sodipodi:nodetypes="ccccccccccccccccccccccc" class="st2" d="
			M319.8,223.2c-26.3,0-47.6,20.3-47.6,45.4c0,7.8,1.9,15.5,5.9,22.3l0,0c1.2,2,2.4,4,3.4,6c0.9,1.4,1.8,2.8,2.7,4.3
			c1,1.4,1.9,2.7,2.8,4.1c3.7,5,7.1,9.9,10.3,14.6c2.2,3.6,4.8,7.5,7,11.3c6.7,11.6,11.4,22.9,13,39.4c0,0,0,0,0,0
			c0.5,1.2,1.5,1.9,2.5,1.9c1.1,0,2.2-0.9,2.6-2.3c1.7-16.3,6.3-27.6,13-39.1c2.2-3.8,4.7-7.7,7-11.3c3.2-4.7,6.6-9.6,10.3-14.6
			c0.9-1.4,1.8-2.7,2.8-4.1c0.8-1.4,1.7-2.9,2.7-4.3c1-2,2.2-4,3.4-6l0,0c4-6.8,5.7-14.5,5.7-22.3
			C367.3,243.5,346,223.2,319.8,223.2L319.8,223.2z"/>
		<ellipse class="st3" cx="319.8" cy="268.6" rx="16.5" ry="15.8"/>
		<path inkscape:connector-curvature="0" class="st4" d="M216.5,263.7c-13.2,0-24,10.9-24,24.4s10.7,24.4,24,24.4
			c8.6,0,13.6-2.7,18-7.1c4.3-4.4,5.9-11.1,5.9-17.8c0-1-0.1-2-0.2-3.1h-9.4H229h-12.3v8.6h13.7c-0.6,2.2-1.5,4.1-3,5.6
			c-2.7,2.7-5.7,4.4-11.1,4.4c-8.2,0-14.8-6.7-14.8-15s6.6-15,14.8-15c4,0,7.4,1.2,10.2,3.7l6.8-6.8c0,0,0,0,0,0
			C228.9,265.7,223.1,263.7,216.5,263.7L216.5,263.7z M229,279.7C229,279.7,229,279.8,229,279.7L229,279.7L229,279.7z"/>
		<path inkscape:connector-curvature="0" class="st5" d="M287,305.2l-22.6,22.6l80.7,80.7c0.8-1.8,1.3-3.9,1.3-6
			v-88.3c-1.3,1.9-2.6,3.8-3.9,5.7c-2.2,3.6-4.8,7.5-7,11.3c-6.7,11.5-11.3,22.8-13,39.1c-0.5,1.4-1.5,2.3-2.6,2.3
			c-1,0-2-0.7-2.5-1.9c0,0,0,0,0,0c-1.7-16.5-6.3-27.8-13-39.4c-2.2-3.8-4.7-7.7-7-11.3C294.1,315.1,290.7,310.2,287,305.2
			C287,305.2,287,305.2,287,305.2L287,305.2z"/>
		<path inkscape:connector-curvature="0" class="st6" d="M280.8,295.5L176,400.2v2.3c0,8.2,6.6,14.8,14.9,14.8h2.9
			l101.1-101.1c-2.5-3.6-5-7.3-7.8-11.1c-0.9-1.4-1.8-2.7-2.8-4.1c-0.8-1.4-1.7-2.9-2.7-4.3C281.3,296.4,281,295.9,280.8,295.5
			L280.8,295.5z"/>
		<path inkscape:connector-curvature="0" class="st4" d="M278,331.2l-17.4,17.4l68.8,68.8h2.2
			c8.2,0,14.8-6.6,14.8-14.8v-3L278,331.2z"/>
	</g>
</g>
</svg>
