<svg id="Слой_1" xmlns="http://www.w3.org/2000/svg" viewBox="0 0 22 22">
    <style>
        .st0{fill:#a7a7aa}.st1{fill:#f3f3f3}.st2{fill:#f90e0e}
    </style>
    <path class="st0" d="M14.4 17.7H7.8c-.4 0-.7.5-.7 1 0 .6.3 1 .7 1h6.6c.4 0 .7-.5.7-1 .1-.5-.3-1-.7-1z"/>
    <path class="st0" d="M18.2 16.3L16.6 15c1.7-2.1 2-5 .9-7.5-.5-1.1-1.5-2.1-2.6-2.8-1.1-.7-2.5-1.1-3.8-1.1-1.3 0-2.6.4-3.8 1.1-1.1.7-2 1.7-2.6 2.9-1.1 2.4-.8 5.4.9 7.5L4 16.3c-2.2-2.7-2.6-6.5-1.1-9.6.8-1.5 1.9-2.8 3.4-3.7 1.5-.9 3.1-1.4 4.8-1.4 1.7 0 3.4.5 4.9 1.4 1.4.9 2.6 2.2 3.3 3.8 1.5 3.1 1.1 6.8-1.1 9.5zm-6.4-5l-1.4-1.4 4-4 1.4 1.4-4 4z"/>
    <path class="st1" d="M0 3.4L3.4 0 22 18.6 18.6 22 0 3.4z"/>
    <path class="st2" d="M1 2.4L2.4 1 21 19.6 19.6 21 1 2.4z"/>
</svg>
