<?xml version="1.0" encoding="UTF-8"?><!DOCTYPE svg PUBLIC "-//W3C//DTD SVG 1.1//EN" "http://www.w3.org/Graphics/SVG/1.1/DTD/svg11.dtd"><svg xmlns="http://www.w3.org/2000/svg"><symbol id="icon-arrow-left" viewBox="0 0 10 10">
    <style>
        .st0{fill:#f7941e}.st1{fill:none;stroke:#000;stroke-width:.3}
    </style>
    <path class="st0" d="M10 4H3l4-4H5L0 5l5 5h2L3 6h7V4z"/>
    <path class="st1" d="M0-54v36"/>
    <path class="st1" d="M-54 0h36"/>
    <path class="st1" d="M-54 10h36"/>
    <path class="st1" d="M0 64V28"/>
    <path class="st1" d="M12-54v36"/>
    <path class="st1" d="M66 0H30"/>
    <path class="st1" d="M66 10H30"/>
    <path class="st1" d="M12 64V28"/>
</symbol><symbol id="icon-icons_calendar" viewBox="0 0 19 14">
    <path d="M5 0h4v4H5zm5 0h4v4h-4zm5 0h4v4h-4zM5 5h4v4H5zM0 5h4v4H0zm10 0h4v4h-4zm-5 5h4v4H5zm-5 0h4v4H0zm10 0h4v4h-4zm5-5h4v4h-4z"/>
</symbol><symbol id="icon-icons_close" viewBox="0 0 14 14">
    <style>
        .st0{fill:#fff}
    </style>
    <path class="st0" d="M12.6 14L8.4 9.8l1.4-1.4 4.2 4.2-1.4 1.4zM1.4 14L0 12.6 12.6 0 14 1.4 1.4 14zm2.8-8.4L0 1.4 1.4 0l4.2 4.2-1.4 1.4z"/>
</symbol><symbol id="icon-icons_menu" viewBox="0 0 18 18">
    <path d="M0 0h4v4H0zm0 7h4v4H0zm0 7h4v4H0zM7 0h4v4H7zm0 7h4v4H7zm0 7h4v4H7zm7-14h4v4h-4zm0 7h4v4h-4zm0 7h4v4h-4z"/>
</symbol><symbol id="icon-icons_users" viewBox="0 0 20 20">
    <style>
        .st0{fill:#fff}
    </style>
    <path class="st0" d="M10 20C4.5 20 0 15.5 0 10S4.5 0 10 0s10 4.5 10 10-4.5 10-10 10zm0-18c-4.4 0-8 3.6-8 8s3.6 8 8 8 8-3.6 8-8-3.6-8-8-8z"/>
    <circle class="st0" cx="10" cy="9" r="3"/>
    <ellipse class="st0" cx="10" cy="16.5" rx="5" ry="3.5"/>
</symbol><symbol id="icon-satellite" viewBox="0 0 22 22">
    <path stroke-miterlimit="10" stroke-width="2" d="M18.15 4.34a.862.862 0 0 0-1.247 0L4.338 16.931a.893.893 0 0 0 0 1.247 9.917 9.917 0 0 0 13.857 0A9.88 9.88 0 0 0 18.15 4.34z"/>
    <path stroke-linejoin="bevel" stroke-width="2" d="M5.617 8.696a3.078 3.078 0 0 1 3.079-3.078M1.06 8.696S-.189 1 8.757 1"/>
</symbol></svg>