<?xml version="1.0" encoding="UTF-8"?><!DOCTYPE svg PUBLIC "-//W3C//DTD SVG 1.1//EN" "http://www.w3.org/Graphics/SVG/1.1/DTD/svg11.dtd"><svg xmlns="http://www.w3.org/2000/svg"><symbol id="icon-arrow-left" viewBox="0 0 10 10">
    <style>
        .st0{fill:#f7941e}.st1{fill:none;stroke:#000;stroke-width:.3}
    </style>
    <path class="st0" d="M10 4H3l4-4H5L0 5l5 5h2L3 6h7V4z"/>
    <path class="st1" d="M0-54v36"/>
    <path class="st1" d="M-54 0h36"/>
    <path class="st1" d="M-54 10h36"/>
    <path class="st1" d="M0 64V28"/>
    <path class="st1" d="M12-54v36"/>
    <path class="st1" d="M66 0H30"/>
    <path class="st1" d="M66 10H30"/>
    <path class="st1" d="M12 64V28"/>
</symbol><symbol id="icon-arrow-right" viewBox="0 0 10 10">
    <path d="M0 6h7l-4 4h2l5-5-5-5H3l4 4H0v2z"/>
    <path d="M0-54v36"/>
    <path d="M-54 0h36"/>
    <path d="M-54 10h36"/>
    <path d="M0 64V28"/>
    <path d="M12-54v36"/>
    <path d="M66 0H30"/>
    <path d="M66 10H30"/>
    <path d="M12 64V28"/>
</symbol><symbol id="icon-baseline-brush" viewBox="0 0 19 18">
    <style>
        .st0{fill:#a7a7aa}
    </style>
    <path class="st0" d="M5 11c-1.7 0-3 1.3-3 3 0 1.3-1.2 2-2 2 .9 1.2 2.5 2 4 2 2.2 0 4-1.8 4-4 0-1.7-1.3-3-3-3zm13.7-9.4L17.4.3c-.4-.4-1-.4-1.4 0l-9 9L9.8 12l9-9c.3-.3.3-1-.1-1.4z"/>
</symbol><symbol id="icon-baseline-edit" viewBox="0 0 18 18">
    <style>
        .st0{fill:#a7a7aa}
    </style>
    <path class="st0" d="M0 14.3V18h3.8l11-11.1-3.7-3.7L0 14.3zM17.7 4c.4-.4.4-1 0-1.4L15.4.3c-.4-.4-1-.4-1.4 0l-1.8 1.8 3.7 3.8L17.7 4z"/>
</symbol><symbol id="icon-baseline-phone" viewBox="0 0 18 18">
    <style>
        .st0{fill:#a7a7aa}
    </style>
    <path class="st0" d="M3.6 7.8c1.4 2.8 3.8 5.1 6.6 6.6l2.2-2.2c.3-.3.7-.4 1-.2 1.1.4 2.3.6 3.6.6.5 0 1 .4 1 1V17c0 .5-.5 1-1 1C7.6 18 0 10.4 0 1c0-.5.5-1 1-1h3.5c.6 0 1 .5 1 1 0 1.3.2 2.4.6 3.6.1.3 0 .7-.3 1L3.6 7.8z"/>
</symbol><symbol id="icon-change-map-api" viewBox="0 0 16 16">
    <style>
        .st0{fill:#a7a7aa}
    </style>
    <path class="st0" d="M15.6 0h-.1l-4.8 1.9L5.3 0l-5 1.7c-.2 0-.3.2-.3.4v13.4c0 .3.2.5.4.5h.1l4.7-1.8 5.3 1.8 5-1.7c.2-.1.3-.2.3-.4V.4c.2-.2 0-.4-.2-.4zm-4.9 14.2l-5.3-1.9V1.8l5.3 1.9v10.5z"/>
</symbol><symbol id="icon-check" viewBox="0 0 14.4 13">
    <style>
        .st0{fill:#2471be}
    </style>
    <path class="st0" d="M6.3 13L0 8.4l1.2-1.6 4.7 3.4L12.8 0l1.6 1.1z"/>
</symbol><symbol id="icon-clock" viewBox="0 0 612 612">
    <path d="M587.572 186.881c-32.266-75.225-87.096-129.934-162.949-162.285C386.711 8.427 346.992.168 305.497.168c-41.488 0-80.914 8.181-118.784 24.428-75.225 32.265-130.298 86.939-162.621 162.285C7.895 224.629 0 264.176 0 305.664c0 41.496 7.895 81.371 24.092 119.127 32.323 75.346 87.403 130.348 162.621 162.621 37.877 16.247 77.295 24.42 118.784 24.42 41.489 0 81.214-8.259 119.12-24.42C500.47 555.06 555.3 500.009 587.573 424.791 603.819 386.914 612 347.16 612 305.664c0-41.488-8.174-80.907-24.428-118.783zm-48.848 253.972c-24.021 41.195-56.929 73.876-98.375 98.039-41.195 24.021-86.332 36.135-134.845 36.135-36.47 0-71.27-7.024-104.4-21.415-33.129-14.384-61.733-33.294-85.661-57.215-23.928-23.928-42.973-52.811-57.214-85.997-14.199-33.065-21.08-68.258-21.08-104.735 0-48.52 11.921-93.428 35.807-134.509 23.971-41.231 56.886-73.947 98.039-98.04 41.146-24.092 85.99-36.142 134.502-36.142 48.52 0 93.649 12.121 134.845 36.142 41.446 24.164 74.283 56.879 98.375 98.039 24.092 41.153 36.135 85.99 36.135 134.509 0 48.521-11.964 93.735-36.128 135.189z"/>
    <path d="M324.906 302.988V129.659c0-10.372-9.037-18.738-19.41-18.738-9.701 0-18.403 8.366-18.403 18.738v176.005c0 .336.671 1.678.671 2.678-.671 6.024 1.007 11.043 5.019 15.062L392.836 423.45c6.695 6.695 19.073 6.695 25.763 0 7.694-7.695 7.188-18.86 0-26.099l-93.693-94.363z"/>
</symbol><symbol id="icon-danger" viewBox="0 0 352.8 341.8">
    <path d="M0 341.8h352.8L176.4 0 0 341.8zm32.8-20L176.4 43.6 320 321.8H32.8z"/>
    <path d="M161.7 258.6h29.5v33.2h-29.5z"/>
    <path d="M161.7 134.1h29.5v99h-29.5z"/>
</symbol><symbol id="icon-diagonalArrows" viewBox="0 0 13 13">
    <path d="M12 8v4H8" stroke-width="2"/>
    <path d="M1 5V1h4" stroke-width="2"/>
    <path d="M12.042 10.628l-1.414 1.415L1 2.414 2.414 1z"/>
</symbol><symbol id="icon-ellipseZone" viewBox="0 0 16 16">
    <style>
        .st0{fill:#a7a7aa}
    </style>
    <path class="st0" d="M8 16c-4.4 0-8-3.6-8-8s3.6-8 8-8 8 3.6 8 8-3.6 8-8 8zM8 2C4.7 2 2 4.7 2 8s2.7 6 6 6 6-2.7 6-6-2.7-6-6-6z"/>
</symbol><symbol id="icon-icons_add" viewBox="0 0 16 16">
    <path d="M7 0h2v16H7z"/>
    <path d="M0 9V7h16v2z"/>
</symbol><symbol id="icon-icons_calendar" viewBox="0 0 19 14">
    <path d="M5 0h4v4H5zm5 0h4v4h-4zm5 0h4v4h-4zM5 5h4v4H5zM0 5h4v4H0zm10 0h4v4h-4zm-5 5h4v4H5zm-5 0h4v4H0zm10 0h4v4h-4zm5-5h4v4h-4z"/>
</symbol><symbol id="icon-icons_close" viewBox="0 0 14 14">
    <style>
        .st0{fill:#fff}
    </style>
    <path class="st0" d="M12.6 14L8.4 9.8l1.4-1.4 4.2 4.2-1.4 1.4zM1.4 14L0 12.6 12.6 0 14 1.4 1.4 14zm2.8-8.4L0 1.4 1.4 0l4.2 4.2-1.4 1.4z"/>
</symbol><symbol id="icon-icons_command" viewBox="0 0 20 20">
    <style>
        .st0{fill:#2471be}
    </style>
    <path class="st0" d="M16 15.5c-.2 0-.4-.1-.6-.2-.5-.3-.6-.9-.3-1.4l2.6-3.9-2.6-3.9c-.2-.5-.1-1.1.3-1.4.5-.3 1.1-.2 1.4.3l3 4.5c.2.3.2.8 0 1.1l-3 4.5c-.2.2-.5.4-.8.4zm-12 0c-.3 0-.6-.2-.8-.4l-3-4.5c-.2-.3-.2-.8 0-1.1l3-4.5c.3-.5.9-.6 1.4-.3.4.3.5.9.2 1.4L2.2 10l2.6 3.9c.3.5.2 1.1-.2 1.4-.2.1-.4.2-.6.2z"/>
    <path class="st0" d="M7 20c-.1 0-.2 0-.3-.1-.5-.2-.8-.7-.6-1.3l6-18c.2-.5.7-.8 1.3-.6.5.2.8.7.6 1.3l-6 18c-.2.4-.6.7-1 .7z"/>
</symbol><symbol id="icon-icons_filter" viewBox="0 0 20 20">
    <path d="M7.527 9.45c.21.23.325.527.325.836v9.095c0 .547.66.825 1.052.44l2.537-2.907c.34-.408.526-.61.526-1.013v-5.613c0-.308.118-.607.325-.835l7.28-7.9C20.118.962 19.698 0 18.892 0H.927a.926.926 0 0 0-.681 1.554l7.28 7.897z"/>
</symbol><symbol id="icon-icons_geozones" viewBox="0 0 19 18">
    <circle cx="2" cy="16" r="2"/>
    <circle cx="16" cy="2" r="2"/>
    <circle cx="2" cy="2" r="2"/>
    <path fill-rule="evenodd" d="M3 3h12v3h2V1H1v16h7v-2H3V3z" clip-rule="evenodd"/>
    <path d="M16.873 18l-.675-2.37h-3.396L12.127 18H10l3.287-10H15.7L19 18h-2.127zm-1.147-4.142c-.624-2.148-.977-3.363-1.057-3.644a12.167 12.167 0 0 1-.166-.668c-.14.582-.541 2.019-1.204 4.312h2.427z"/>
</symbol><symbol id="icon-icons_info" viewBox="0 0 20 20">
    <circle cx="10" cy="10" r="10"/>
    <path d="M9 4h2v2H9zm0 4h2v8H9z"/>
</symbol><symbol id="icon-icons_key" viewBox="0 0 18 18">
    <path d="M12.336 0C9.204 0 7.2 2.868 7.2 6c0 .672-.396.996-.204 1.668L0 14.664V18h3.6v-2.4H6v-1.2l1.332-.396 3-3c.6.204.936-.204 1.668-.204 3.132 0 6-2.004 6-5.136A5.664 5.664 0 0 0 12.336 0zm.164 7.8a2.4 2.4 0 1 1 0-4.8 2.4 2.4 0 0 1 0 4.8z"/>
</symbol><symbol id="icon-icons_map" viewBox="0 0 20 20">
    <path d="M17.071 2.929A9.934 9.934 0 0 1 20 10a9.935 9.935 0 0 1-2.929 7.071A9.935 9.935 0 0 1 10 20a9.935 9.935 0 0 1-7.071-2.929A9.935 9.935 0 0 1 0 10.001a9.934 9.934 0 0 1 2.929-7.072A9.935 9.935 0 0 1 10 0a9.935 9.935 0 0 1 7.071 2.929zm-.884 13.258a8.69 8.69 0 0 0 2.388-4.435c-.263.388-.514.532-.67-.336-.16-1.414-1.46-.51-2.276-1.013-.86.58-2.791-1.126-2.463.798.506.867 2.734-1.161 1.624.674-.708 1.282-2.59 4.12-2.346 5.591.031 2.144-2.19.447-2.955-.264-.515-1.424-.176-3.913-1.522-4.61-1.46-.064-2.715-.197-3.28-1.83-.342-1.169.362-2.908 1.614-3.177 1.833-1.151 2.488 1.349 4.207 1.395.534-.558 1.989-.736 2.11-1.362-1.129-.199 1.43-.948-.109-1.375-.849.1-1.396.88-.945 1.543-1.645.383-1.698-2.381-3.28-1.51-.04 1.38-2.582.448-.879.168.585-.256-.954-.996-.122-.862.408-.022 1.783-.504 1.411-.828.766-.475 1.41 1.139 2.16-.037.54-.903-.228-1.07-.906-.612-.382-.428.675-1.353 1.608-1.753.31-.133.608-.205.835-.185.47.543 1.339.637 1.384-.065A8.717 8.717 0 0 0 10 1.25c-1.907 0-3.72.606-5.22 1.726.402.185.631.415.243.71-.302.899-1.527 2.106-2.602 1.935a8.653 8.653 0 0 0-1.083 3.136c.9.298 1.108.887.914 1.085-.458.4-.74.967-.886 1.588a8.685 8.685 0 0 0 2.447 4.757A8.693 8.693 0 0 0 10 18.75c2.337 0 4.534-.91 6.187-2.563z"/>
</symbol><symbol id="icon-icons_menu" viewBox="0 0 18 18">
    <path d="M0 0h4v4H0zm0 7h4v4H0zm0 7h4v4H0zM7 0h4v4H7zm0 7h4v4H7zm0 7h4v4H7zm7-14h4v4h-4zm0 7h4v4h-4zm0 7h4v4h-4z"/>
</symbol><symbol id="icon-icons_parking-filled" viewBox="0 0 20 20">
    <path fill-rule="evenodd" d="M2.225 0h15.55A2.224 2.224 0 0 1 20 2.216v15.487c0 .588-.234 1.152-.652 1.567a2.23 2.23 0 0 1-1.573.65H2.225a2.23 2.23 0 0 1-1.573-.65A2.211 2.211 0 0 1 0 17.703V2.216C0 1.628.234 1.065.652.649A2.23 2.23 0 0 1 2.225 0zm9.568 4.15c.484.186.927.497 1.299.91.314.346.56.774.715 1.25.156.476.219.989.184 1.499.03.51-.035 1.02-.19 1.496a3.528 3.528 0 0 1-.71 1.252c-.793.74-1.891 1.098-2.796 1.098H8v4.28H6V3.985h4.468c.548-.002.886-.004 1.325.165zm-.845 5.69c.24-.102.461-.265.645-.478.325-.423.504-.978.5-1.553a2.437 2.437 0 0 0-.5-1.434c-.183-.255-.384-.384-.645-.51-.26-.124-.668-.235-.948-.202H8V9.96h2.195c.255.024.512-.016.753-.12z" clip-rule="evenodd"/>
</symbol><symbol id="icon-icons_parking" viewBox="0 0 18 18">
    <path d="M16 2.002V16H2.002V2.002H16zM15.998 0H2.003A2.002 2.002 0 0 0 0 2.002v13.996A2.003 2.003 0 0 0 2.002 18h13.996A2.003 2.003 0 0 0 18 15.998V2.003A2.003 2.003 0 0 0 15.998 0z"/>
    <path d="M12.978 4.11a3.854 3.854 0 0 0-1.46-.91 3.673 3.673 0 0 0-1.686-.167H5V15h2.023v-4.428h2.809a4.184 4.184 0 0 0 3.146-.957c.35-.35.623-.778.798-1.254a3.64 3.64 0 0 0 .213-1.498 3.562 3.562 0 0 0-.206-1.501 3.378 3.378 0 0 0-.805-1.252zm-1.685 4.308a2.019 2.019 0 0 1-.727.48c-.27.103-.56.143-.847.119H7.023V4.709h2.584c.315-.034.632.014.925.14.294.124.554.322.76.578.346.39.545.9.562 1.436a2.359 2.359 0 0 1-.561 1.555z"/>
</symbol><symbol id="icon-icons_photos" viewBox="0 0 20 17">
    <path fill-rule="evenodd" d="M17.045 3c.74 0 1.944 0 2.455.5.501.492.5.972.5 1.652v9.232c0 .722-.26 1.339-.781 1.85a2.6 2.6 0 0 1-1.886.766H2.667a2.595 2.595 0 0 1-1.886-.767 2.495 2.495 0 0 1-.78-1.849V5.151C-.002 4.47-.002 3.99.5 3.5 1.01 3 2.214 3 2.954 3H5l.531-1.774c.132-.334.373-.621.724-.863S6.965 0 7.333 0h5.334c.368 0 .727.121 1.078.363.35.242.592.53.724.863L15 3h2.046zM6.467 6.467C7.445 5.49 8.623 5 10 5c1.377 0 2.555.489 3.533 1.467C14.51 7.445 15 8.623 15 10c0 1.377-.49 2.555-1.467 3.533C12.555 14.511 11.377 15 10 15c-1.377 0-2.555-.49-3.533-1.467C5.49 12.555 5 11.377 5 10c0-1.377.49-2.555 1.467-3.533z" clip-rule="evenodd"/>
    <circle cx="10" cy="10" r="3"/>
</symbol><symbol id="icon-icons_protection" viewBox="0 0 16 20">
    <path d="M15.98 5.148c-.023-.526-.023-1.028-.023-1.53 0-.407-.295-.718-.682-.718-2.841 0-5.001-.861-6.797-2.703a.676.676 0 0 0-.955 0C5.727 2.04 3.567 2.9.726 2.9c-.387 0-.682.31-.682.717 0 .503 0 1.005-.023 1.531-.091 5.022-.228 11.91 7.752 14.804L8 20l.228-.048c7.957-2.894 7.843-9.758 7.752-14.804zm-8.525 6.96a.713.713 0 0 1-.478.191h-.022a.628.628 0 0 1-.478-.24L4.363 9.597l1.023-.956 1.66 1.937 3.682-3.683.933 1.052-4.206 4.162z"/>
</symbol><symbol id="icon-icons_report" viewBox="0 0 16 20">
    <path d="M0 11h4v9H0zM6 0h4v20H6zm6 8h4v12h-4z"/>
</symbol><symbol id="icon-icons_routes" viewBox="0 0 20 20">
    <path fill-rule="evenodd" d="M9 0H4L0 20h7l.4-4h5.2l.4 4h7L16 0h-5l.4 4H8.6L9 0zm3.3 13l-.7-7H8.4l-.7 7h4.6z" clip-rule="evenodd"/>
</symbol><symbol id="icon-icons_satellite" viewBox="0 0 17 17">
    <style>
        .st0{fill:#a7a7aa}
    </style>
    <path class="st0" d="M8.7 17c-2.1 0-4.2-.8-5.9-2.4-.6-.7-.6-1.7 0-2.4l9.4-9.5c.4-.3.8-.5 1.2-.5.4 0 .8.2 1.1.5 3.2 3.2 3.2 8.5 0 11.8-1.6 1.7-3.7 2.5-5.8 2.5zm-4.2-3.6c2.5 2.2 6.3 2.1 8.7-.2 2.3-2.4 2.4-6.2.2-8.7l-8.9 8.9z"/>
    <path class="st0" d="M.1 6.9c0-.1-.4-2.8 1.3-4.8C2.5.7 4.4 0 6.8 0v2C5 2 3.7 2.5 2.9 3.4 1.8 4.7 2 6.6 2 6.6l-1.9.3zm5.4-.1h-2C3.5 5 5 3.5 6.8 3.5v2c-.7 0-1.3.6-1.3 1.3z"/>
</symbol><symbol id="icon-icons_search" viewBox="0 0 18 18">
    <path d="M6.702 0a6.685 6.685 0 0 0-5.499 2.864 6.696 6.696 0 0 0 3.812 10.31 6.685 6.685 0 0 0 6.037-1.406l.281.292v.81L16.471 18 18 16.47l-5.127-5.152h-.809l-.292-.282a6.686 6.686 0 0 0-1.465-9.98A6.674 6.674 0 0 0 6.702 0zm0 11.318a4.63 4.63 0 0 1-4.28-2.862 4.638 4.638 0 0 1 3.376-6.32 4.629 4.629 0 0 1 4.755 1.971 4.64 4.64 0 0 1 .78 2.576 4.627 4.627 0 0 1-2.857 4.285 4.618 4.618 0 0 1-1.774.35z"/>
</symbol><symbol id="icon-icons_speedometer-crossed" viewBox="0 0 22 22">
    <style>
        .st0{fill:#a7a7aa}.st1{fill:#f3f3f3}.st2{fill:#f90e0e}
    </style>
    <path class="st0" d="M14.4 17.7H7.8c-.4 0-.7.5-.7 1 0 .6.3 1 .7 1h6.6c.4 0 .7-.5.7-1 .1-.5-.3-1-.7-1z"/>
    <path class="st0" d="M18.2 16.3L16.6 15c1.7-2.1 2-5 .9-7.5-.5-1.1-1.5-2.1-2.6-2.8-1.1-.7-2.5-1.1-3.8-1.1-1.3 0-2.6.4-3.8 1.1-1.1.7-2 1.7-2.6 2.9-1.1 2.4-.8 5.4.9 7.5L4 16.3c-2.2-2.7-2.6-6.5-1.1-9.6.8-1.5 1.9-2.8 3.4-3.7 1.5-.9 3.1-1.4 4.8-1.4 1.7 0 3.4.5 4.9 1.4 1.4.9 2.6 2.2 3.3 3.8 1.5 3.1 1.1 6.8-1.1 9.5zm-6.4-5l-1.4-1.4 4-4 1.4 1.4-4 4z"/>
    <path class="st1" d="M0 3.4L3.4 0 22 18.6 18.6 22 0 3.4z"/>
    <path class="st2" d="M1 2.4L2.4 1 21 19.6 19.6 21 1 2.4z"/>
</symbol><symbol id="icon-icons_speedometer" viewBox="0 0 18 18">
    <style>
        .st0{fill:#a7a7aa}
    </style>
    <path class="st0" d="M12.3 16H5.7c-.4 0-.7.5-.7 1s.3 1 .7 1h6.5c.4 0 .7-.5.7-1s-.2-1-.6-1z"/>
    <path class="st0" d="M16 14.6l-1.6-1.3c1.7-2.1 2-5 .9-7.4-.6-1.2-1.5-2.2-2.6-2.9-1.1-.6-2.4-1-3.7-1-1.3 0-2.6.4-3.7 1.1-1.2.7-2 1.7-2.6 2.9-1.2 2.4-.8 5.3.9 7.4L2 14.6C-.2 12-.6 8.2.9 5.1c.7-1.5 1.9-2.8 3.3-3.7C5.6.5 7.3 0 9 0c1.7 0 3.4.5 4.8 1.4 1.4.9 2.6 2.2 3.3 3.7 1.5 3.1 1.1 6.9-1.1 9.5zM9.7 9.7L8.3 8.3l4-4 1.4 1.4-4 4z"/>
</symbol><symbol id="icon-icons_task" viewBox="0 0 20 20">
    <style>
        .st0{fill:#2471be}
    </style>
    <path class="st0" d="M18 20H2c-1.1 0-2-.9-2-2V2C0 .9.9 0 2 0h16c1.1 0 2 .9 2 2v16c0 1.1-.9 2-2 2zM2 2v16h16V2H2z"/>
    <path class="st0" d="M9.6 14.9l-4.4-2.6 1-1.7L9 12.2l4.4-7 1.7 1.1z"/>
</symbol><symbol id="icon-icons_users" viewBox="0 0 20 20">
    <style>
        .st0{fill:#fff}
    </style>
    <path class="st0" d="M10 20C4.5 20 0 15.5 0 10S4.5 0 10 0s10 4.5 10 10-4.5 10-10 10zm0-18c-4.4 0-8 3.6-8 8s3.6 8 8 8 8-3.6 8-8-3.6-8-8-8z"/>
    <circle class="st0" cx="10" cy="9" r="3"/>
    <ellipse class="st0" cx="10" cy="16.5" rx="5" ry="3.5"/>
</symbol><symbol id="icon-logout" viewBox="0 0 15 16">
    <style>
        .st0{fill:#a7a7aa}
    </style>
    <path class="st0" d="M9 16H0V0h9v2H2v12h7z"/>
    <path class="st0" d="M5 7h10v2H5z"/>
    <path transform="rotate(-45.001 12.522 6.128)" class="st0" d="M11.5 3.6h2v5.1h-2z"/>
    <path transform="rotate(-45.001 12.522 9.522)" class="st0" d="M10 8.5h5.1v2H10z"/>
</symbol><symbol id="icon-rectangleZone" viewBox="0 0 16 16">
    <style>
        .st0{fill:#a7a7aa}
    </style>
    <path class="st0" d="M15 15H1V1h14v14zM3 13h10V3H3v10z"/>
    <path class="st0" d="M0 0h4v4H0z"/>
    <path class="st0" d="M12 0h4v4h-4z"/>
    <path class="st0" d="M12 12h4v4h-4z"/>
    <path class="st0" d="M0 12h4v4H0z"/>
</symbol><symbol id="icon-rounded-info-button" viewBox="0 0 510 510">
    <path d="M255 0C114.8 0 0 114.8 0 255s114.8 255 255 255 255-114.8 255-255S395.3 0 255 0zm25.5 408h-51V204h51v204zm0-255h-51v-51h51v51z"/>
</symbol><symbol id="icon-satellite" viewBox="0 0 22 22">
    <path stroke-miterlimit="10" stroke-width="2" d="M18.15 4.34a.862.862 0 0 0-1.247 0L4.338 16.931a.893.893 0 0 0 0 1.247 9.917 9.917 0 0 0 13.857 0A9.88 9.88 0 0 0 18.15 4.34z"/>
    <path stroke-linejoin="bevel" stroke-width="2" d="M5.617 8.696a3.078 3.078 0 0 1 3.079-3.078M1.06 8.696S-.189 1 8.757 1"/>
</symbol><symbol id="icon-settings" viewBox="0 0 18 18">
    <path d="M15.885 9.877c.035-.28.058-.573.058-.877 0-.304-.023-.596-.07-.877l1.956-1.485a.456.456 0 0 0 .116-.574l-1.852-3.117c-.115-.202-.358-.27-.567-.202l-2.302.9a6.83 6.83 0 0 0-1.563-.877L11.315.383A.458.458 0 0 0 10.851 0H7.15a.446.446 0 0 0-.452.383L6.35 2.767a7.012 7.012 0 0 0-1.562.877l-2.303-.9a.464.464 0 0 0-.567.202L.067 6.064a.428.428 0 0 0 .115.574l1.956 1.485A5.502 5.502 0 0 0 2.057 9c0 .293.023.596.07.877L.17 11.364a.456.456 0 0 0-.116.573l1.852 3.117c.115.202.358.27.567.202l2.302-.9c.486.36.995.652 1.563.877l.347 2.386a.467.467 0 0 0 .463.382h3.702c.232 0 .429-.157.452-.383l.347-2.385a7.01 7.01 0 0 0 1.562-.877l2.303.9c.208.079.451 0 .567-.203l1.851-3.116a.428.428 0 0 0-.115-.573l-1.933-1.486zM9 12.375c-1.91 0-3.472-1.519-3.472-3.375S7.091 5.625 9 5.625c1.91 0 3.472 1.519 3.472 3.375S10.909 12.375 9 12.375z"/>
</symbol><symbol id="icon-trash" viewBox="0 0 12 15">
    <style>
        .st0{fill:#999}
    </style>
    <title>
        trash
    </title>
    <path class="st0" d="M1 14s.1 1 1 1h8c.6 0 1-.4 1-1V4H1v10z"/>
    <path class="st0" d="M12 1H9L8 0H4L3 1H0v2h12z"/>
</symbol><symbol id="icon-triangleZone" viewBox="0 0 16 16">
    <path d="M14 8l.447.894a1 1 0 0 0 0-1.788L14 8zM2.447 14.894l12-6-.894-1.788-12 6 .894 1.788zm12-7.788l-12-6-.894 1.788 12 6 .894-1.788z"/>
    <path d="M0 0h4v4H0zm12 6h4v4h-4zM0 12h4v4H0z"/>
</symbol><symbol id="icon-upRightArrows" viewBox="0 0 17 17">
    <style>
        .st0{fill:#a7a7aa}
    </style>
    <path class="st0" d="M1.4 5.4L0 3.9 4 .1 7.8 4 6.3 5.4 4 2.9z"/>
    <path class="st0" d="M13 17l-1.4-1.5 2.5-2.4-2.5-2.5L13 9.2l3.9 3.9z"/>
    <path class="st0" d="M2.8 2.5h2.1v11.6H2.8z"/>
    <path class="st0" d="M2.8 12h11.6v2.1H2.8z"/>
</symbol><symbol id="icon-user" viewBox="0 0 16 18">
    <path d="M8 8a4 4 0 1 1 0-8 4 4 0 0 1 0 8z"/>
    <path d="M8 10a8 8 0 0 1 8 8H0a8 8 0 0 1 8-8z"/>
</symbol></svg>