<svg xmlns="http://www.w3.org/2000/svg" viewBox="0 0 187.8 190.6">
    <style>
        .st0{fill:#34a668}.st1{fill:#5c88c5}.st2{fill:#dd4b3e}.st3{fill:#802d27}.st4{fill:#fff}.st5{fill:#c3c3c3}.st6{fill:#fddc4f}
    </style>
    <title>
        GoogleMaps logo
    </title>
    <g transform="translate(-172.531 -218.455) scale(.98012)">
        <path class="st0" d="M190.9 247h140.7c8.2 0 14.8 6.6 14.8 14.8v140.7c0 8.2-6.6 14.8-14.8 14.8H190.9c-8.2 0-14.8-6.6-14.8-14.8V261.9c-.1-8.2 6.6-14.9 14.8-14.9z"/>
        <path class="st1" d="M262.3 330.6l-82.2 82.2c2.7 2.8 6.5 4.6 10.7 4.6h140.7c4.8 0 9-2.3 11.8-5.8l-81-81z"/>
        <path class="st2" d="M319.8 223.2c-26.3 0-47.6 20.3-47.6 45.4 0 7.8 1.9 15.5 5.9 22.3 1.2 2 2.4 4 3.4 6 .9 1.4 1.8 2.8 2.7 4.3 1 1.4 1.9 2.7 2.8 4.1 3.7 5 7.1 9.9 10.3 14.6 2.2 3.6 4.8 7.5 7 11.3 6.7 11.6 11.4 22.9 13 39.4.5 1.2 1.5 1.9 2.5 1.9 1.1 0 2.2-.9 2.6-2.3 1.7-16.3 6.3-27.6 13-39.1 2.2-3.8 4.7-7.7 7-11.3 3.2-4.7 6.6-9.6 10.3-14.6.9-1.4 1.8-2.7 2.8-4.1.8-1.4 1.7-2.9 2.7-4.3 1-2 2.2-4 3.4-6 4-6.8 5.7-14.5 5.7-22.3 0-25-21.3-45.3-47.5-45.3z"/>
        <ellipse class="st3" cx="319.8" cy="268.6" rx="16.5" ry="15.8"/>
        <path class="st4" d="M216.5 263.7c-13.2 0-24 10.9-24 24.4s10.7 24.4 24 24.4c8.6 0 13.6-2.7 18-7.1 4.3-4.4 5.9-11.1 5.9-17.8 0-1-.1-2-.2-3.1h-23.5v8.6h13.7c-.6 2.2-1.5 4.1-3 5.6-2.7 2.7-5.7 4.4-11.1 4.4-8.2 0-14.8-6.7-14.8-15s6.6-15 14.8-15c4 0 7.4 1.2 10.2 3.7l6.8-6.8c-4.4-4.3-10.2-6.3-16.8-6.3zm12.5 16s0 .1 0 0z"/>
        <path class="st5" d="M287 305.2l-22.6 22.6 80.7 80.7c.8-1.8 1.3-3.9 1.3-6v-88.3l-3.9 5.7c-2.2 3.6-4.8 7.5-7 11.3-6.7 11.5-11.3 22.8-13 39.1-.5 1.4-1.5 2.3-2.6 2.3-1 0-2-.7-2.5-1.9-1.7-16.5-6.3-27.8-13-39.4-2.2-3.8-4.7-7.7-7-11.3-3.3-4.9-6.7-9.8-10.4-14.8z"/>
        <path class="st6" d="M280.8 295.5L176 400.2v2.3c0 8.2 6.6 14.8 14.9 14.8h2.9l101.1-101.1c-2.5-3.6-5-7.3-7.8-11.1-.9-1.4-1.8-2.7-2.8-4.1-.8-1.4-1.7-2.9-2.7-4.3-.3-.3-.6-.8-.8-1.2z"/>
        <path class="st4" d="M278 331.2l-17.4 17.4 68.8 68.8h2.2c8.2 0 14.8-6.6 14.8-14.8v-3L278 331.2z"/>
    </g>
</svg>
